<?xml version="1.0" encoding="utf-8"?>
<!-- Generator: Adobe Illustrator 18.1.1, SVG Export Plug-In . SVG Version: 6.00 Build 0)  -->
<svg version="1.1" id="Layer_1" xmlns="http://www.w3.org/2000/svg" xmlns:xlink="http://www.w3.org/1999/xlink" x="0px" y="0px"
	 viewBox="0 0 1000 1000" enable-background="new 0 0 1000 1000" xml:space="preserve">
<g id="gold">
	<path id="face" fill="#FFD461" d="M496.9,928.1c-218,0-453.1-136.7-453.1-436.7S278.9,54.7,496.9,54.7
		c121.1,0,232.8,39.8,315.6,112.5C902.3,246.9,950,359.4,950,491.4s-47.7,243.8-137.5,323.4C729.7,887.5,617.2,928.1,496.9,928.1z"
		/>
	<path id="face_1_" fill="#FFD461" d="M496.9,928.1c-218,0-453.1-136.7-453.1-436.7S278.9,54.7,496.9,54.7
		c121.1,0,232.8,39.8,315.6,112.5C902.3,246.9,950,359.4,950,491.4s-47.7,243.8-137.5,323.4C729.7,887.5,617.2,928.1,496.9,928.1z"
		/>
</g>
<g id="facial_expressions">
	<g id="blush">
		
			<radialGradient id="SVGID_1_" cx="24.2766" cy="1274.454" r="19.4512" gradientTransform="matrix(7.6563 0 0 7.2656 27.0313 -8680.625)" gradientUnits="userSpaceOnUse">
			<stop  offset="0" style="stop-color:#ED7770"/>
			<stop  offset="8.000000e-002" style="stop-color:#ED7770;stop-opacity:0.96"/>
			<stop  offset="0.22" style="stop-color:#ED7770;stop-opacity:0.85"/>
			<stop  offset="0.39" style="stop-color:#ED7770;stop-opacity:0.68"/>
			<stop  offset="0.59" style="stop-color:#ED7770;stop-opacity:0.43"/>
			<stop  offset="0.81" style="stop-color:#ED7770;stop-opacity:0.13"/>
			<stop  offset="0.9" style="stop-color:#ED7770;stop-opacity:0"/>
		</radialGradient>
		<circle opacity="0.8" fill="url(#SVGID_1_)" enable-background="new    " cx="212.9" cy="579.4" r="136.7"/>
	</g>
</g>
<path id="path853" fill="#422B0D" d="M436.7,779.7c-28-9-52-42.4-59.8-82.8c-1.5-7.4-2.2-22.9-1.8-35c0.7-19.1,1.5-22.3,5.9-27.1
	c8.2-9,18.9-6.5,23,5.6c1.3,3.8,2.3,12.4,2.3,19c0,24.4,11.9,55.6,27.4,71.5c15.4,15.8,24.8,13.4,37.4-9.9
	c3.8-7.1,10.1-16,14.2-19.7c6.3-6,8.8-7.1,18.3-7.1h11l16.1,17.3c10,10.7,17.9,17.3,20.5,17.3c6.4,0,18.8-13.9,25.6-28.8
	c6-13.3,8.5-22.9,12.2-49.7c2.5-17.8,6.2-24,15.8-27.3c9.4-3.2,16.8,0.2,23.7,10.6c6.2,9.3,6.4,26.8,0.7,51.3
	c-7,30.1-17.7,51-36,69.6c-14.1,14.3-23.3,18.5-40.7,18.5c-17,0-27.1-4.4-38.8-17c-4-4.2-8.2-7.7-9.5-7.7c-1.2,0-4.7,3.8-7.8,8.4
	C481.9,778,459.1,786.9,436.7,779.7z"/>
<radialGradient id="SVGID_2_" cx="99.1561" cy="1274.454" r="19.4529" gradientTransform="matrix(7.6563 0 0 7.2656 27.0313 -8680.625)" gradientUnits="userSpaceOnUse">
	<stop  offset="0" style="stop-color:#ED7770"/>
	<stop  offset="8.000000e-002" style="stop-color:#ED7770;stop-opacity:0.96"/>
	<stop  offset="0.22" style="stop-color:#ED7770;stop-opacity:0.85"/>
	<stop  offset="0.39" style="stop-color:#ED7770;stop-opacity:0.68"/>
	<stop  offset="0.59" style="stop-color:#ED7770;stop-opacity:0.43"/>
	<stop  offset="0.81" style="stop-color:#ED7770;stop-opacity:0.13"/>
	<stop  offset="0.9" style="stop-color:#ED7770;stop-opacity:0"/>
</radialGradient>
<circle opacity="0.8" fill="url(#SVGID_2_)" enable-background="new    " cx="786.2" cy="579.4" r="136.7"/>
<g id="eyes">
	<path id="path855" fill="#422B0D" d="M317.7,477.8c-18.5-2.8-32.8-9.4-49.6-22.9c-24.3-19.5-44.7-58.7-49.8-95.6
		c-3.1-22.9-0.5-58.9,6.1-80.8c3.1-10.3,12.8-14.6,18.9-8.5c3.5,3.5,3.8,10.1,1.3,26.8c-3.6,23.8,3.3,65,14.8,87.7
		c19.8,39.4,49.6,60.4,77.6,55.1c14.8-2.9,23.9-8.3,37.7-22c10-10,13.8-15.1,18.6-25.2c11.5-23.8,16.9-43.3,21-76.5
		c2.4-18.5,9.9-27.9,21-25.8c4.9,1,12.1,8.5,14.3,15c7.6,22.9-9,86.5-31.4,120.1c-14.3,21.4-35.7,39-57.2,47.2
		c-8.3,3.1-29,7.1-34,6.5C326,478.9,321.9,478.4,317.7,477.8L317.7,477.8z"/>
	<path id="path857" fill="#422B0D" d="M668.2,478.8c-35.8-6-75.5-46.9-93.2-96.4c-10.1-28.2-13.9-70.6-7.9-87.9
		c5.4-15.3,19-20.3,25-9.1c0.9,1.8,2.3,13.9,2.9,27.2c2.3,44.9,12.3,74.8,33.9,101.4c33.3,40.8,67.5,41.5,97.6,2.1
		c24.3-31.8,32.9-65,29.2-111.4c-1-11.9-1.3-23.7-0.8-26c0.6-2.4,3.1-6.3,5.5-8.8c3.8-3.8,5.3-4.4,9.8-3.6c2.9,0.5,6.6,2.1,8.4,3.5
		c11,9.8,16,49.6,10.8,84.6c-3.1,20.4-6,30.5-13.4,46.6c-20.1,43.3-50.4,71.6-82.6,77.3C680.6,480.6,679.3,480.6,668.2,478.8
		L668.2,478.8z"/>
</g>
</svg>
